<svg width="69" height="29" viewBox="0 0 69 29" fill="none" xmlns="http://www.w3.org/2000/svg">
<path fill-rule="evenodd" clip-rule="evenodd" d="M45.2126 7.38183C45.502 7.38183 45.7915 7.28533 46.0087 7.01996C46.2981 6.68223 46.3464 6.29624 46.2499 5.88613C46.1534 5.47602 45.9122 5.18653 45.502 5.09003C45.0678 4.96941 44.6818 5.06591 44.3682 5.37952C44.1752 5.57251 44.1028 5.81375 44.0787 6.07912C44.0063 6.77872 44.4165 7.38183 45.2126 7.38183ZM43.2344 2.87061H44.0546V4.77642C44.127 4.70404 44.1993 4.65579 44.2717 4.60755C44.7059 4.31806 45.1884 4.24568 45.6709 4.34218C46.4429 4.48693 46.9495 5.01766 47.0942 5.78963C47.1907 6.29624 47.1425 6.77872 46.9012 7.21296C46.6359 7.74369 46.1775 8.03318 45.5985 8.10555C45.1884 8.1538 44.7783 8.10555 44.4165 7.91256C44.2717 7.81606 44.127 7.71957 43.9822 7.59894V8.03318H43.2344V2.87061Z" fill="white"/>
<path fill-rule="evenodd" clip-rule="evenodd" d="M51.7745 5.06621C51.4367 5.06621 51.1231 5.21095 50.906 5.52457C50.7371 5.76581 50.6889 6.03118 50.713 6.32067C50.7371 6.7549 50.9301 7.09264 51.3403 7.28563C51.7745 7.4545 52.1846 7.43038 52.5465 7.11676C52.8601 6.87552 52.9566 6.51366 52.9324 6.12767C52.9083 5.52457 52.45 5.06621 51.7745 5.06621ZM53.0289 4.87322C53.0289 4.72847 53.0289 4.60785 53.0289 4.4631C53.0289 4.41486 53.0531 4.39073 53.1013 4.39073C53.2943 4.39073 53.4873 4.39073 53.6803 4.39073C53.7527 4.39073 53.7527 4.41486 53.7527 4.48723C53.7527 5.21095 53.7527 5.91056 53.7527 6.63428C53.7527 7.09264 53.7527 7.551 53.7527 7.98523C53.7527 8.00936 53.7527 8.03348 53.7527 8.05761H53.0048V7.59925C52.8842 7.69574 52.7877 7.79224 52.6671 7.86461C52.257 8.12998 51.7986 8.20235 51.3403 8.12998C50.4718 8.00936 49.9169 7.30976 49.8446 6.46541C49.7963 6.03118 49.8687 5.62106 50.0617 5.23508C50.3994 4.60785 50.9543 4.31836 51.678 4.31836C52.0399 4.31836 52.4017 4.41486 52.7153 4.63197C52.8359 4.68022 52.9324 4.77672 53.0289 4.87322Z" fill="white"/>
<path fill-rule="evenodd" clip-rule="evenodd" d="M35.7305 6.24816C35.7305 6.07929 35.7063 5.91042 35.634 5.74155C35.3203 4.9937 34.4278 4.94545 33.9453 5.28319C33.5834 5.54856 33.4145 6.05516 33.511 6.53765C33.704 7.35787 34.5242 7.57499 35.1032 7.2855C35.5375 7.06838 35.7063 6.70652 35.7305 6.24816ZM36.5507 8.05747H35.8028V7.59911C35.7787 7.59911 35.7787 7.59911 35.7787 7.59911C35.5133 7.8886 35.1756 8.05747 34.7896 8.10572C34.3313 8.17809 33.897 8.10572 33.4869 7.86448C33.0286 7.57499 32.7873 7.14075 32.6908 6.61002C32.6184 6.19991 32.6426 5.7898 32.8114 5.40381C33.0527 4.80071 33.511 4.43884 34.1624 4.34235C34.6449 4.26997 35.1032 4.34235 35.5133 4.60771C35.6098 4.68009 35.7063 4.77658 35.827 4.87308V4.41472H36.5748V8.05747H36.5507Z" fill="white"/>
<path fill-rule="evenodd" clip-rule="evenodd" d="M58.9609 2.87061H59.7812V5.91025H59.8053C59.9259 5.76551 60.0707 5.62076 60.1913 5.45189C60.4808 5.11415 60.7703 4.77642 61.0597 4.43868C61.0839 4.41455 61.108 4.39043 61.1562 4.39043C61.4699 4.39043 61.7593 4.39043 62.073 4.39043C62.073 4.39043 62.0971 4.39043 62.1212 4.39043C61.6146 4.96941 61.108 5.54839 60.6014 6.12737C61.1804 6.7546 61.7593 7.38183 62.3624 8.03318C62.3383 8.03318 62.3142 8.03318 62.2901 8.03318C61.9765 8.03318 61.6629 8.03318 61.3492 8.03318C61.301 8.03318 61.2527 8.00906 61.2286 7.98493C60.7703 7.50245 60.336 6.99584 59.8777 6.51336C59.8535 6.48923 59.8294 6.46511 59.8053 6.44098V8.03318H58.9609V2.87061Z" fill="white"/>
<path fill-rule="evenodd" clip-rule="evenodd" d="M58.0698 4.873C57.9009 5.06599 57.732 5.23486 57.5632 5.40373C57.0324 4.89712 56.2122 4.99362 55.8262 5.42786C55.4644 5.86209 55.4644 6.60994 55.8504 7.04418C56.2122 7.45429 57.0566 7.55078 57.5873 6.99593C57.7562 7.18892 57.925 7.35779 58.0939 7.55078C57.8044 7.81615 57.4908 8.00914 57.1048 8.08152C56.6706 8.15389 56.2363 8.12976 55.8262 7.96089C55.2714 7.74378 54.9095 7.33367 54.7889 6.73056C54.6441 6.17571 54.6924 5.62085 55.006 5.11424C55.2955 4.63176 55.7297 4.39052 56.2846 4.29402C56.9359 4.19752 57.539 4.34227 58.0215 4.80063C58.0457 4.84888 58.0457 4.84888 58.0698 4.873Z" fill="white"/>
<path fill-rule="evenodd" clip-rule="evenodd" d="M40.6034 8.05756H39.7832V4.39069H40.5311V4.92142H40.5552C40.8205 4.51131 41.1824 4.29419 41.6649 4.29419C42.0268 4.29419 42.3886 4.41481 42.5816 4.6078C42.5334 4.72842 42.461 4.82492 42.3886 4.94554C42.3404 5.06616 42.268 5.16266 42.2197 5.25916C42.1232 5.21091 42.0268 5.16266 41.9061 5.11441C41.303 4.92142 40.7723 5.25916 40.6517 5.88638C40.6275 6.00701 40.6275 6.15175 40.6275 6.27237C40.6275 6.8031 40.6275 7.33384 40.6275 7.88869V8.05756H40.6034Z" fill="white"/>
<path fill-rule="evenodd" clip-rule="evenodd" d="M48.082 8.0573H48.9023V2.87061H48.082V8.0573Z" fill="white"/>
<path fill-rule="evenodd" clip-rule="evenodd" d="M38.578 8.0575H37.7578V4.39062C37.7819 4.39062 37.8061 4.39062 37.8302 4.39062C38.0473 4.39062 38.2885 4.39062 38.5057 4.39062C38.5539 4.39062 38.578 4.41475 38.578 4.463C38.578 5.64508 38.578 6.82717 38.578 7.98513C38.578 8.00925 38.578 8.03338 38.578 8.0575Z" fill="white"/>
<path fill-rule="evenodd" clip-rule="evenodd" d="M37.6367 3.32887C37.6367 3.01526 37.8538 2.82227 38.1675 2.82227C38.4811 2.82227 38.6982 3.03938 38.6982 3.32887C38.6982 3.61836 38.4811 3.83548 38.1675 3.83548C37.878 3.85961 37.6367 3.64249 37.6367 3.32887Z" fill="white"/>
<path fill-rule="evenodd" clip-rule="evenodd" d="M36.9836 14.1367C36.9594 14.0402 36.9594 13.8954 36.9353 13.7507C36.7906 13.1958 36.477 12.8339 35.9221 12.7133C35.3431 12.5686 34.8365 12.6892 34.4264 13.1476C34.1128 13.5335 34.0163 13.9678 34.0887 14.4503C34.2575 15.56 35.3672 15.9218 36.1633 15.56C36.7423 15.2946 36.9594 14.8121 36.9836 14.1367ZM33.968 16.332L33.8957 16.7903C33.8957 16.8144 33.8715 16.8386 33.8474 16.8386H32.7377C32.7136 16.8386 32.6895 16.8144 32.6895 16.7903V9.38419C32.6895 9.36006 32.7136 9.33594 32.7377 9.33594H34.0404C34.0645 9.33594 34.0887 9.36006 34.0887 9.38419V12.062C34.0887 12.062 34.1369 12.0137 34.161 11.9896C34.7159 11.5071 35.3672 11.3382 36.0668 11.4106C36.7906 11.4589 37.3695 11.7725 37.8279 12.3273C38.1415 12.7374 38.3104 13.1958 38.3828 13.7024C38.4551 14.3296 38.4069 14.9569 38.1174 15.5359C37.7073 16.3802 37.0077 16.8386 36.0668 16.9109C35.4637 16.9592 34.9089 16.8627 34.4023 16.5249C34.2817 16.4526 34.1852 16.3561 34.0645 16.2596C34.0163 16.2596 33.968 16.2837 33.968 16.332Z" fill="#F56563"/>
<path fill-rule="evenodd" clip-rule="evenodd" d="M46.8028 14.209C46.8028 14.2813 46.8269 14.3778 46.8269 14.4743C47.0199 15.7047 48.3226 15.97 49.0946 15.4634C49.6494 15.0774 49.8424 14.3296 49.6494 13.6782C49.3358 12.6409 48.202 12.4962 47.5506 12.8339C47.044 13.1234 46.8269 13.6059 46.8028 14.209ZM49.8424 12.0378L49.9148 11.5794C49.9148 11.5553 49.9389 11.5312 49.963 11.5312H51.0728C51.0969 11.5312 51.121 11.5553 51.121 11.5794V16.742C51.121 16.7661 51.0969 16.7903 51.0728 16.7903H49.963C49.9389 16.7903 49.9148 16.7661 49.9148 16.742C49.8907 16.549 49.8665 16.3802 49.8183 16.163C49.7942 16.1872 49.77 16.2113 49.7459 16.2354C49.2634 16.6938 48.6845 16.8868 48.0331 16.9109C47.1888 16.9109 46.465 16.6214 45.9584 15.9459C45.6207 15.5117 45.4759 15.0051 45.4277 14.4743C45.3794 13.8471 45.4518 13.244 45.7654 12.6892C46.1755 11.9413 46.8028 11.5312 47.623 11.4106C48.2743 11.3141 48.8775 11.4347 49.4323 11.7966C49.5529 11.8689 49.6494 11.9654 49.7459 12.0619C49.77 12.1102 49.8183 12.086 49.8424 12.0378Z" fill="#F56563"/>
<path fill-rule="evenodd" clip-rule="evenodd" d="M40.6762 13.7026H43.2575C43.2816 13.7026 43.3298 13.6785 43.3057 13.6302C43.2575 13.2684 43.0886 12.9789 42.7509 12.7859C42.4373 12.5929 42.0995 12.5688 41.7376 12.5929C41.1587 12.6411 40.7003 13.0271 40.6038 13.6302C40.6038 13.6785 40.6279 13.7026 40.6762 13.7026ZM44.6084 14.6676H40.6521C40.6279 14.6676 40.5797 14.6917 40.6038 14.74C40.6521 14.9812 40.7486 15.1742 40.9174 15.3431C41.1828 15.6084 41.5205 15.729 41.8824 15.7773C42.4131 15.8255 43.0645 15.7049 43.547 15.3431C43.5711 15.3189 43.5952 15.3189 43.6193 15.3431C43.74 15.4637 43.8606 15.5843 43.9812 15.6808C44.1018 15.8014 44.2224 15.8979 44.3672 16.0185C44.3913 16.0427 44.3913 16.0909 44.3672 16.115C44.2224 16.2356 44.1259 16.3321 44.0053 16.4045C43.1851 16.9594 42.2925 17.08 41.3275 16.9111C40.6762 16.7905 40.0972 16.501 39.6871 15.9703C39.3494 15.5602 39.1805 15.0777 39.1564 14.547C39.1081 13.9439 39.1805 13.3407 39.47 12.7859C39.856 12.0622 40.4832 11.6521 41.2552 11.4832C41.8824 11.3626 42.5096 11.3867 43.1127 11.6279C43.9812 11.9415 44.4878 12.5929 44.6567 13.5096C44.729 13.8715 44.729 14.2333 44.6808 14.6193C44.6567 14.6435 44.6326 14.6676 44.6084 14.6676Z" fill="#F56563"/>
<path fill-rule="evenodd" clip-rule="evenodd" d="M63.9809 19.2029C64.1015 18.9376 64.7528 17.4177 64.9941 16.8629C65.0182 16.8146 65.0182 16.7181 64.9941 16.6458C64.4151 15.1983 63.3054 12.3999 63.0159 11.6762C62.9918 11.6038 63.04 11.5073 63.1365 11.5073C63.426 11.5073 64.0291 11.5073 64.3669 11.5073C64.4392 11.5073 64.5116 11.5556 64.5357 11.6279C64.8976 12.617 65.5731 14.4987 65.7902 15.0536C65.8143 15.1018 65.8867 15.1018 65.9108 15.0536C66.1762 14.3781 67.2376 11.7003 67.2859 11.5797C67.31 11.5556 67.3341 11.5073 67.3824 11.5073C67.7684 11.5073 68.4921 11.5073 68.7575 11.5073C68.8057 11.5073 68.8298 11.5556 68.8298 11.6038C68.468 12.424 65.8626 18.4792 65.6213 19.0582C65.5731 19.1547 65.5248 19.2029 65.4283 19.2029C65.0182 19.2029 64.584 19.2029 64.1739 19.2029H63.9809V19.2029Z" fill="#F56563"/>
<path fill-rule="evenodd" clip-rule="evenodd" d="M52.4982 11.5315H53.8009C53.825 11.5315 53.8491 11.5556 53.8491 11.5797C53.8491 11.9175 53.8491 13.582 53.8491 14.4264C53.8491 14.74 53.8974 15.0295 54.0904 15.2707C54.3798 15.6567 54.7899 15.7532 55.2483 15.6567C55.8032 15.5361 56.165 15.1019 56.2133 14.5229C56.2133 14.4023 56.2374 14.2575 56.2374 14.1369C56.2374 13.3891 56.2374 11.9175 56.2374 11.6039C56.2374 11.5797 56.2615 11.5556 56.2857 11.5556H57.5884C57.6125 11.5556 57.6366 11.5797 57.6366 11.6039V16.7664C57.6366 16.7906 57.6125 16.8147 57.5884 16.8147H56.4786C56.4545 16.8147 56.4304 16.7906 56.4304 16.7664C56.4063 16.5976 56.3821 16.4287 56.3339 16.2357C56.3098 16.2598 56.2857 16.2598 56.2857 16.2598C55.7067 16.8388 54.9829 17.0077 54.211 16.8871C53.2943 16.7423 52.6429 16.091 52.474 15.126C52.4258 14.9089 52.4258 14.6676 52.4258 14.4505C52.4258 13.6062 52.4258 11.9175 52.4258 11.6039C52.4499 11.5797 52.474 11.5315 52.4982 11.5315Z" fill="#F56563"/>
<path fill-rule="evenodd" clip-rule="evenodd" d="M59.5657 12.7133H58.7455C58.7214 12.7133 58.6973 12.6892 58.6973 12.6651V11.6277C58.6973 11.6036 58.7214 11.5795 58.7455 11.5795H59.5657C59.5899 11.5795 59.614 11.5554 59.614 11.5312V10.3009C59.614 10.2768 59.6381 10.2527 59.6622 10.2527C60.0965 10.2044 60.5307 10.1562 60.9649 10.1079C60.9891 10.1079 61.0373 10.132 61.0373 10.1562V11.483C61.0373 11.5071 61.0614 11.5312 61.0856 11.5312H62.3883C62.4124 11.5312 62.4365 11.5554 62.4365 11.5795V12.6409C62.4365 12.6651 62.4124 12.6892 62.3883 12.6892H61.0856C61.0614 12.6892 61.0373 12.7133 61.0373 12.7374C61.0373 13.0269 61.0373 14.2814 61.0373 14.9086C61.0373 15.0051 61.0373 15.1016 61.0614 15.174C61.1579 15.5358 61.4715 15.7288 61.8817 15.6323C62.0264 15.6082 62.147 15.56 62.2918 15.5358C62.3159 15.5358 62.3641 15.5358 62.3641 15.5841C62.4848 15.8977 62.5813 16.2354 62.7019 16.5732C62.7019 16.5973 62.7019 16.6456 62.6778 16.6456C62.6054 16.6697 62.5089 16.7179 62.4365 16.7421C61.9299 16.9109 61.4233 16.9592 60.9167 16.8386C60.2653 16.7179 59.8793 16.3078 59.7346 15.6565C59.6864 15.3911 59.6622 15.1257 59.6381 14.8604C59.6381 14.2573 59.6381 13.0269 59.6381 12.7374C59.614 12.7374 59.5899 12.7133 59.5657 12.7133Z" fill="#F56563"/>
<path fill-rule="evenodd" clip-rule="evenodd" d="M49.3119 23.087C49.336 23.9313 49.8426 24.5103 50.5905 24.6068C51.1695 24.6792 51.7967 24.438 52.062 23.8348C52.2068 23.5212 52.255 23.2076 52.2068 22.8458C52.1103 21.9049 51.2418 21.3742 50.3492 21.6154C49.6979 21.8084 49.3119 22.3874 49.3119 23.087ZM49.2636 18.238C49.3119 18.238 49.336 18.2622 49.336 18.3104V20.9399C49.4084 20.8917 49.4808 20.8676 49.529 20.8193C50.687 19.9026 53.0994 20.1197 53.5819 22.3633C53.7507 23.1594 53.6784 23.9555 53.2683 24.6551C52.8099 25.427 52.1344 25.813 51.2418 25.8613C50.6146 25.8854 50.0356 25.7648 49.529 25.3547C49.4566 25.2823 49.3601 25.2099 49.2636 25.1376L49.1671 25.6683C49.1671 25.7165 49.1189 25.7648 49.0707 25.7648H48.0574C48.0092 25.7648 47.9609 25.7165 47.9609 25.6683V18.3345C47.9609 18.2863 47.9851 18.2622 48.0333 18.2622L49.2636 18.238Z" fill="#F56563"/>
<path fill-rule="evenodd" clip-rule="evenodd" d="M45.2132 20.457H46.3711C46.4435 20.457 46.5159 20.5294 46.5159 20.6018V25.6679C46.5159 25.7161 46.4918 25.7402 46.4435 25.7402L45.3579 25.7644C45.3338 25.7644 45.2856 25.7402 45.2856 25.7161L45.1891 25.2095C45.1167 25.2577 45.0684 25.306 45.0202 25.3542C44.3447 25.9091 43.5727 26.0538 42.7525 25.8126C42.0529 25.6196 41.6187 25.113 41.4016 24.4375C41.3292 24.1722 41.2568 23.8827 41.2568 23.6173C41.2327 22.773 41.2568 21.1566 41.2568 20.6741C41.2568 20.6018 41.3292 20.5294 41.4016 20.5294H42.5595C42.6319 20.5294 42.7043 20.5777 42.7043 20.6741C42.7043 21.1325 42.7043 22.6041 42.7043 23.3037C42.7043 23.5208 42.7284 23.7379 42.7766 23.9309C42.8973 24.3893 43.3315 24.6788 43.814 24.6788C44.4653 24.6788 44.9237 24.2928 45.0443 23.6414C45.0684 23.4967 45.0684 23.3278 45.0926 23.1589C45.0926 22.5076 45.0926 21.1084 45.0926 20.65C45.0926 20.5053 45.1408 20.457 45.2132 20.457Z" fill="#F56563"/>
<path fill-rule="evenodd" clip-rule="evenodd" d="M37.564 21.1568C37.0333 21.6875 37.2504 21.4704 36.7197 22.0011C36.2854 21.6393 35.8271 21.4945 35.2722 21.591C34.9345 21.6393 34.645 21.8082 34.4279 22.0735C33.9454 22.6284 33.9695 23.5933 34.452 24.1482C34.7656 24.4859 35.1757 24.6307 35.6341 24.6307C36.0442 24.6307 36.2372 24.5342 36.8162 24.1241L37.6364 25.0167C37.1539 25.4992 36.5749 25.7886 35.8995 25.861C35.3205 25.9093 34.7656 25.861 34.2108 25.6439C33.294 25.2579 32.8116 24.5342 32.6668 23.5451C32.5944 23.1109 32.6427 22.6525 32.7633 22.2424C33.0046 21.3739 33.5594 20.7949 34.4038 20.5296C35.2964 20.2401 36.1648 20.2642 37.0092 20.7708C37.2263 20.8432 37.3952 20.9638 37.564 21.1568Z" fill="#F56563"/>
<path fill-rule="evenodd" clip-rule="evenodd" d="M38.5527 25.6442V18.3104C38.5527 18.2622 38.5769 18.238 38.6251 18.238H39.8796C39.9278 18.238 39.9519 18.2622 39.9519 18.3104V25.62C39.9519 25.6683 39.9278 25.6924 39.8796 25.6924H38.6251C38.5769 25.7165 38.5527 25.6924 38.5527 25.6442Z" fill="#F56563"/>
<path fill-rule="evenodd" clip-rule="evenodd" d="M14.381 20.3126C11.0278 20.3126 8.30172 17.5865 8.30172 14.2333C8.30172 10.88 11.0278 8.15397 14.381 8.15397C17.7343 8.15397 20.4603 10.88 20.4603 14.2333C20.4603 17.5865 17.7584 20.3126 14.381 20.3126ZM14.381 0C10.69 0 7.31263 1.3992 4.80372 3.71512L1.25746 0.192994C0.847351 -0.217117 0.171875 0.0723722 0.171875 0.651353V14.2333C0.171875 22.0736 6.54066 28.4424 14.381 28.4424C18.072 28.4424 21.4494 27.0432 23.9583 24.7273L27.4804 28.2494C27.8906 28.6595 28.566 28.37 28.566 27.7911V14.2091C28.5902 6.36878 22.2214 0 14.381 0Z" fill="#F56563"/>
</svg>
