<svg width="35" height="35" viewBox="0 0 35 35" fill="none" xmlns="http://www.w3.org/2000/svg">
<g clip-path="url(#clip0_3267_473)">
<path d="M26.8588 0.94043H8.12169C3.90695 0.94043 0.490234 4.35715 0.490234 8.57188V27.309C0.490234 31.5237 3.90695 34.9404 8.12169 34.9404H26.8588C31.0735 34.9404 34.4902 31.5237 34.4902 27.309V8.57188C34.4902 4.35715 31.0735 0.94043 26.8588 0.94043Z" fill="url(#paint0_linear_3267_473)"/>
<path d="M12.2666 6.82886H22.8659C23.1014 6.94663 23.4547 6.94663 23.6903 7.0644C24.7238 7.2319 25.6902 7.68436 26.4808 8.3709C27.2714 9.05745 27.8548 9.95088 28.1655 10.9508C28.3394 11.527 28.4577 12.1185 28.5188 12.7173V23.081C28.3504 24.3945 27.8654 25.6474 27.1056 26.7319C26.4537 27.4872 25.6364 28.082 24.7173 28.47C23.7981 28.8581 22.8019 29.029 21.806 28.9695H12.9733C11.397 29.046 9.84713 28.5433 8.61579 27.5563C7.86702 26.9093 7.27612 26.0997 6.88829 25.1893C6.50046 24.2789 6.32598 23.2919 6.37818 22.3037V14.0599C6.35872 13.4686 6.39817 12.8768 6.49595 12.2934C6.61487 11.086 7.1113 9.94678 7.9147 9.03767C8.7181 8.12856 9.78759 7.49579 10.9712 7.22927L12.2666 6.82886ZM8.61579 18.0169V22.6099C8.56558 23.1948 8.64383 23.7836 8.84505 24.3351C9.04628 24.8866 9.36562 25.3874 9.78072 25.8025C10.1958 26.2176 10.6966 26.5369 11.2481 26.7381C11.7996 26.9394 12.3884 27.0176 12.9733 26.9674C16.0353 27.0852 19.0973 27.0852 22.1593 26.9674C24.868 26.9674 26.399 25.3186 26.5167 22.6099C26.6345 19.5479 26.6345 16.4859 26.5167 13.4239C26.5472 12.8437 26.4554 12.2635 26.2472 11.721C26.0391 11.1785 25.7191 10.6858 25.3083 10.2749C24.8974 9.86406 24.4047 9.54415 23.8622 9.33596C23.3197 9.12777 22.7395 9.03596 22.1593 9.06647C19.0973 8.94871 16.0353 8.94871 12.9733 9.06647C12.3884 9.01626 11.7996 9.09451 11.2481 9.29573C10.6966 9.49696 10.1958 9.8163 9.78072 10.2314C9.36562 10.6465 9.04628 11.1473 8.84505 11.6988C8.64383 12.2503 8.56558 12.8391 8.61579 13.4239V18.0169Z" fill="#F5F5F5"/>
<path d="M11.8418 18.064C11.8449 16.5345 12.4539 15.0685 13.5354 13.987C14.617 12.9054 16.083 12.2964 17.6125 12.2933C19.1335 12.3235 20.5839 12.9411 21.6597 14.0169C22.7354 15.0926 23.3531 16.543 23.3832 18.064C23.3801 19.5936 22.7711 21.0595 21.6896 22.1411C20.608 23.2226 19.142 23.8316 17.6125 23.8347C16.0914 23.8046 14.6411 23.1869 13.5653 22.1112C12.4896 21.0354 11.8719 19.5851 11.8418 18.064V18.064ZM17.6125 14.4132C16.8972 14.4015 16.1947 14.6038 15.5951 14.9939C14.9954 15.3841 14.526 15.9445 14.2468 16.6031C13.9677 17.2618 13.8916 17.9889 14.0283 18.6911C14.165 19.3933 14.5083 20.0387 15.0142 20.5446C15.52 21.0504 16.1654 21.3937 16.8677 21.5304C17.5699 21.6672 18.2969 21.5911 18.9556 21.3119C19.6143 21.0328 20.1746 20.5633 20.5648 19.9637C20.955 19.3641 21.1572 18.6616 21.1456 17.9463C21.1456 17.0092 20.7733 16.1106 20.1108 15.448C19.4482 14.7854 18.5495 14.4132 17.6125 14.4132V14.4132Z" fill="#F5F5F5"/>
<path d="M22.0887 12.0579C22.0822 11.8705 22.1142 11.6838 22.1829 11.5094C22.2516 11.3349 22.3555 11.1765 22.488 11.0439C22.6206 10.9114 22.779 10.8075 22.9535 10.7388C23.1279 10.6701 23.3146 10.6381 23.502 10.6446C23.8686 10.6694 24.2138 10.8263 24.4737 11.0861C24.7335 11.346 24.8904 11.6912 24.9152 12.0579C24.9152 12.4327 24.7663 12.7921 24.5013 13.0572C24.2362 13.3222 23.8768 13.4711 23.502 13.4711C23.1272 13.4711 22.7677 13.3222 22.5027 13.0572C22.2376 12.7921 22.0887 12.4327 22.0887 12.0579V12.0579Z" fill="#F5F5F5"/>
</g>
<defs>
<linearGradient id="paint0_linear_3267_473" x1="-1.67672" y1="36.8247" x2="38.3648" y2="-2.62798" gradientUnits="userSpaceOnUse">
<stop stop-color="#FED576"/>
<stop offset="0.26" stop-color="#F47133"/>
<stop offset="0.61" stop-color="#BC3081"/>
<stop offset="1" stop-color="#4C63D2"/>
</linearGradient>
<clipPath id="clip0_3267_473">
<rect x="0.490234" y="0.94043" width="34" height="34" rx="17" fill="white"/>
</clipPath>
</defs>
</svg>
