<svg width="35" height="35" viewBox="0 0 35 35" fill="none" xmlns="http://www.w3.org/2000/svg">
<path d="M26.5502 0.94043H7.81309C3.59836 0.94043 0.181641 4.35715 0.181641 8.57188V27.309C0.181641 31.5237 3.59836 34.9404 7.81309 34.9404H26.5502C30.7649 34.9404 34.1816 31.5237 34.1816 27.309V8.57188C34.1816 4.35715 30.7649 0.94043 26.5502 0.94043Z" fill="#0B86CA"/>
<path d="M9.60282 15.0728H13.1359V26.4729H9.60282V15.0728ZM11.4047 9.40808C11.8095 9.40809 12.2052 9.52798 12.5419 9.75263C12.8786 9.97728 13.1413 10.2966 13.2967 10.6704C13.4522 11.0441 13.4934 11.4556 13.4153 11.8527C13.3372 12.2499 13.1432 12.6151 12.8578 12.9021C12.5724 13.1891 12.2084 13.3852 11.8116 13.4656C11.4149 13.546 11.0033 13.5071 10.6286 13.3538C10.254 13.2005 9.93314 12.9397 9.70656 12.6043C9.47999 12.2688 9.35783 11.8738 9.3555 11.469C9.35395 11.199 9.40581 10.9312 9.50809 10.6812C9.61038 10.4313 9.76108 10.204 9.95152 10.0124C10.142 9.8209 10.3684 9.6689 10.6178 9.56518C10.8672 9.46147 11.1346 9.40808 11.4047 9.40808V9.40808ZM15.3971 15.0728H18.8006V16.6273C19.1413 16.0459 19.6335 15.5679 20.2246 15.2443C20.8157 14.9208 21.4836 14.7638 22.157 14.7901C25.6901 14.7901 26.4085 17.1455 26.4085 20.2193V26.4729H22.8754V20.9612C22.8754 19.6422 22.8754 17.9346 21.0382 17.9346C19.201 17.9346 18.9184 19.3714 18.9184 20.8553V26.4964H15.3853L15.3971 15.0728Z" fill="#F5F5F5"/>
</svg>
