<svg width="29" height="29" viewBox="0 0 29 29" fill="none" xmlns="http://www.w3.org/2000/svg">
<path fill-rule="evenodd" clip-rule="evenodd" d="M14.381 20.3126C11.0278 20.3126 8.30172 17.5865 8.30172 14.2333C8.30172 10.88 11.0278 8.15397 14.381 8.15397C17.7343 8.15397 20.4603 10.88 20.4603 14.2333C20.4603 17.5865 17.7584 20.3126 14.381 20.3126ZM14.381 0C10.69 0 7.31263 1.3992 4.80372 3.71512L1.25746 0.192994C0.847351 -0.217117 0.171875 0.0723722 0.171875 0.651353V14.2333C0.171875 22.0736 6.54066 28.4424 14.381 28.4424C18.072 28.4424 21.4494 27.0432 23.9583 24.7273L27.4804 28.2494C27.8906 28.6595 28.566 28.37 28.566 27.7911V14.2091C28.5902 6.36878 22.2214 0 14.381 0Z" fill="black"/>
</svg>
