<svg width="26" height="14" viewBox="0 0 26 14" fill="none" xmlns="http://www.w3.org/2000/svg">
<path fill-rule="evenodd" clip-rule="evenodd" d="M12.5994 6.55947C14.3391 6.55947 15.7493 5.14924 15.7493 3.40962C15.7493 1.67 14.3391 0.259766 12.5994 0.259766C10.8598 0.259766 9.44958 1.67 9.44958 3.40962C9.44958 5.14924 10.8598 6.55947 12.5994 6.55947ZM23.0991 3.93444C23.0991 5.09418 22.1589 6.03434 20.9992 6.03434C19.8395 6.03434 18.8993 5.09418 18.8993 3.93444C18.8993 2.77469 19.8395 1.83453 20.9992 1.83453C22.1589 1.83453 23.0991 2.77469 23.0991 3.93444ZM5.24976 11.0217C5.24976 9.58329 5.94272 8.30235 7.00318 7.50439C6.5727 7.2419 6.05822 7.08441 5.51224 7.08441H2.88737C1.29144 7.08441 0 8.37585 0 9.97178V10.4968C0 10.9272 0.356983 11.2842 0.787463 11.2842H5.24976V11.0217ZM5.10002 6.03434C6.25977 6.03434 7.19993 5.09418 7.19993 3.93444C7.19993 2.77469 6.25977 1.83453 5.10002 1.83453C3.94028 1.83453 3.00012 2.77469 3.00012 3.93444C3.00012 5.09418 3.94028 6.03434 5.10002 6.03434ZM25.1989 10.4968V9.97178C25.1989 8.37585 23.9074 7.08441 22.3115 7.08441H19.6866C19.1406 7.08441 18.6262 7.2419 18.1957 7.50439C19.2561 8.30235 19.9491 9.58329 19.9491 11.0217V11.2842H24.4114C24.8419 11.2842 25.1989 10.9272 25.1989 10.4968ZM9.71201 8.1344H15.4867C17.0795 8.1344 18.3741 9.42899 18.3741 11.0218V12.5967C18.3741 13.0314 18.0213 13.3842 17.5866 13.3842H7.61211C7.17743 13.3842 6.82465 13.0314 6.82465 12.5967V11.0218C6.82465 9.42899 8.11924 8.1344 9.71201 8.1344Z" fill="#F5F5F5"/>
</svg>
