<svg width="12" height="12" viewBox="0 0 12 12" fill="none" xmlns="http://www.w3.org/2000/svg">
<g clip-path="url(#clip0_3267_282)">
<g clip-path="url(#clip1_3267_282)">
<path d="M10.7308 4.68569L7.50691 4.23666L6.06574 1.43658C6.0264 1.35992 5.96162 1.29786 5.88162 1.26013C5.681 1.16522 5.43722 1.24431 5.33691 1.43658L3.89574 4.23666L0.671858 4.68569C0.582974 4.69786 0.501709 4.73802 0.439492 4.79886C0.364274 4.87296 0.322826 4.97263 0.324254 5.076C0.325683 5.17935 0.369871 5.27798 0.447111 5.35013L2.77964 7.52958L2.22857 10.6071C2.21564 10.6787 2.22391 10.7523 2.25243 10.8197C2.28095 10.8869 2.32857 10.9453 2.38991 10.9879C2.45125 11.0306 2.52384 11.056 2.59946 11.0612C2.67508 11.0664 2.75069 11.0511 2.81773 11.0172L5.7013 9.56424L8.58491 11.0172C8.66365 11.0573 8.75507 11.0707 8.84269 11.0561C9.06362 11.0196 9.21216 10.8189 9.17409 10.6071L8.62303 7.52958L10.9555 5.35013C11.019 5.29048 11.0609 5.21259 11.0736 5.12742C11.1079 4.91447 10.953 4.71733 10.7308 4.68569Z" fill="#F7C852"/>
</g>
</g>
<defs>
<clipPath id="clip0_3267_282">
<rect width="11" height="10.56" fill="white" transform="translate(0.160156 0.920166)"/>
</clipPath>
<clipPath id="clip1_3267_282">
<rect width="11" height="10.56" fill="white" transform="translate(0.160156 0.920166)"/>
</clipPath>
</defs>
</svg>
