<svg width="22" height="20" viewBox="0 0 22 20" fill="none" xmlns="http://www.w3.org/2000/svg">
<path d="M10.8191 0.735381C10.8677 0.585601 11.0796 0.585601 11.1283 0.735381L13.4009 7.72982C13.4227 7.7968 13.4851 7.84215 13.5555 7.84215H20.9099C21.0674 7.84215 21.1329 8.04368 21.0055 8.13625L15.0557 12.459C14.9987 12.5004 14.9748 12.5738 14.9966 12.6408L17.2692 19.6352C17.3179 19.785 17.1465 19.9096 17.0191 19.817L11.0692 15.4942C11.0123 15.4528 10.9351 15.4528 10.8781 15.4942L4.92831 19.817C4.80089 19.9096 4.62946 19.785 4.67813 19.6352L6.95076 12.6408C6.97252 12.5738 6.94868 12.5004 6.8917 12.459L0.941881 8.13625C0.81447 8.04368 0.879951 7.84215 1.03744 7.84215H8.39182C8.46225 7.84215 8.52467 7.7968 8.54644 7.72982L10.8191 0.735381Z" fill="#F5F5F5"/>
</svg>
